<?xml version="1.0" encoding="UTF-8" standalone="no"?>
<!DOCTYPE svg PUBLIC "-//W3C//DTD SVG 1.1//EN" "http://www.w3.org/Graphics/SVG/1.1/DTD/svg11.dtd">
<svg width="100%" height="100%" viewBox="0 0 86 142" version="1.1" xmlns="http://www.w3.org/2000/svg" xmlns:xlink="http://www.w3.org/1999/xlink" xml:space="preserve" xmlns:serif="http://www.serif.com/" style="fill-rule:evenodd;clip-rule:evenodd;stroke-linecap:round;stroke-linejoin:round;stroke-miterlimit:1.5;">
    <g transform="matrix(1,0,0,1,-82,-56.4233)">
        <g>
            <g transform="matrix(0.986728,0,0,1,2.09494,-6)">
                <path d="M166.288,166.833C163.698,187.788 145.989,204.021 124.558,204.021C101.346,204.021 82.5,184.977 82.5,161.521L82.5,135L166.616,135L166.616,161.521L166.616,161.658C166.611,163.387 166.503,165.092 166.296,166.765C165.114,165.311 161.044,160.394 161.042,161.516L161.047,161.645L166.288,166.833ZM161.046,161.644L161.042,161.641C160.977,181.973 144.691,198.521 124.558,198.521C104.385,198.521 88.074,181.906 88.074,161.521L88.074,140.5C88.074,140.5 161.042,140.5 161.042,140.5C161.042,140.5 161.042,161.521 161.042,161.521L161.046,161.644ZM161.054,161.859C161.085,162.381 161.191,162.883 161.36,163.355C161.529,163.827 161.762,164.269 162.049,164.672C161.502,163.965 161.114,163.048 161.054,161.859Z" style="fill:rgb(245,245,245);"/>
            </g>
            <g id="Back" transform="matrix(6.12323e-17,-1,1,6.12323e-17,-272,198.223)">
                <path d="M34.3,376L13.3,396.8L34.3,418L38.3,414L21.3,396.8L38.3,380L34.3,376Z" style="fill:rgb(245,245,245);fill-rule:nonzero;"/>
            </g>
            <path d="M167.5,135L167.5,99.423C167.5,75.967 148.456,56.923 125,56.923C101.635,56.923 82.649,75.819 82.501,99.149L82.5,99.423L82.5,135L167.5,135Z" style="fill:rgb(245,245,245);stroke:rgb(245,245,245);stroke-width:1px;"/>
        </g>
    </g>
</svg>
