<?xml version="1.0" encoding="UTF-8" standalone="no"?>
<!DOCTYPE svg PUBLIC "-//W3C//DTD SVG 1.1//EN" "http://www.w3.org/Graphics/SVG/1.1/DTD/svg11.dtd">
<svg width="100%" height="100%" viewBox="0 0 54 47" version="1.1" xmlns="http://www.w3.org/2000/svg" xmlns:xlink="http://www.w3.org/1999/xlink" xml:space="preserve" xmlns:serif="http://www.serif.com/" style="fill-rule:evenodd;clip-rule:evenodd;stroke-linejoin:round;stroke-miterlimit:2;">
    <g transform="matrix(1,0,0,1,0,-0.9998)">
        <g transform="matrix(1,0,0,1,-436,-154)">
            <g transform="matrix(2,0,0,2,-30,-266)">
                <g>
                    <path d="M233,211.75C233,210.784 233.779,210.5 234.751,210.5L258.249,210.5C259.216,210.5 260,210.777 260,211.75C260,212.717 259.221,213 258.249,213L234.751,213C233.784,213 233,212.723 233,211.75ZM233,222.25C233,221.284 233.779,221 234.751,221L258.249,221C259.216,221 260,221.277 260,222.25C260,223.217 259.221,223.5 258.249,223.5L234.751,223.5C233.784,223.5 233,223.223 233,222.25ZM233,232.75C233,231.784 233.779,231.5 234.751,231.5L258.249,231.5C259.216,231.5 260,231.777 260,232.75C260,233.717 259.221,234 258.249,234L234.751,234C233.784,234 233,233.723 233,232.75Z" style="fill:#e8fcfa;"/>
                </g>
            </g>
        </g>
    </g>
</svg>
