<?xml version="1.0" encoding="UTF-8" standalone="no"?>
<!DOCTYPE svg PUBLIC "-//W3C//DTD SVG 1.1//EN" "http://www.w3.org/Graphics/SVG/1.1/DTD/svg11.dtd">
<svg width="100%" height="100%" viewBox="0 0 721 540" version="1.1" xmlns="http://www.w3.org/2000/svg" xmlns:xlink="http://www.w3.org/1999/xlink" xml:space="preserve" xmlns:serif="http://www.serif.com/" style="fill-rule:evenodd;clip-rule:evenodd;stroke-linejoin:round;stroke-miterlimit:2;">
    <g transform="matrix(1,0,0,1,-1199,-540)">
        <path d="M1920,1080L1199,1080L1199,1011.75C1279.87,1011.75 1356.01,991.357 1422.54,955.452C1395.62,913.465 1380,863.542 1380,810C1380,660.983 1500.98,540 1650,540C1656.97,540 1663.89,540.265 1670.75,540.787C1670.46,719.954 1570.07,875.834 1422.54,955.452C1470.56,1030.34 1554.53,1080 1650,1080C1753.25,1080 1843.05,1021.92 1888.47,936.657C1831.66,922.544 1789.5,871.156 1789.5,810C1789.5,748.844 1831.66,697.456 1888.47,683.343C1846.12,603.849 1765.19,547.977 1670.75,540.787L1670.75,540L1920,540L1920,679.5C1909.13,679.5 1898.57,680.832 1888.47,683.343C1908.59,721.118 1920,764.237 1920,810C1920,855.763 1908.59,898.882 1888.47,936.657C1898.57,939.168 1909.13,940.5 1920,940.5L1920,1080Z" style="fill:rgb(232,252,250);"/>
    </g>
</svg>
